PathFileType	4	(X/Y/Z)	65_2_6_p0_0-383_filt_butterworth.trc
DataRate	CameraRate	NumFrames	NumMarkers	Units	OrigDataRate	OrigDataStartFrame	OrigNumFrames
47.0	47.0	6	27	m	47.0	47	383
Frame#	Time	RHip			RKnee			RAnkle			RBigToe			RSmallToe			RHeel			LHip			LKnee			LAnkle			LBigToe			LSmallToe			LHeel			Neck			Head			Nose			RShoulder			RElbow			RWrist			RThumb			RIndex			RPinky			LShoulder			LElbow			LWrist			LThumb			LIndex			LPinky			
		X1	Y1	Z1	X2	Y2	Z2	X3	Y3	Z3	X4	Y4	Z4	X5	Y5	Z5	X6	Y6	Z6	X7	Y7	Z7	X8	Y8	Z8	X9	Y9	Z9	X10	Y10	Z10	X11	Y11	Z11	X12	Y12	Z12	X13	Y13	Z13	X14	Y14	Z14	X15	Y15	Z15	X16	Y16	Z16	X17	Y17	Z17	X18	Y18	Z18	X19	Y19	Z19	X20	Y20	Z20	X21	Y21	Z21	X22	Y22	Z22	X23	Y23	Z23	X24	Y24	Z24	X25	Y25	Z25	X26	Y26	Z26	X27	Y27	Z27	
47	1.0	0.3947840721032867	0.6404874595213721	0.8756276486973725	0.3761775544617404	0.2040431648771993	0.9795404646610114	0.3137021736848338	-0.2242514715507266	0.9942153045649333	0.29305507919890944	-0.2732978088989187	0.8626816601292587	0.3593191076446594	-0.2664276333447193	0.8674613902707741	0.2816006223431547	-0.29954801258416586	1.068774876392146	0.17083966234797185	0.6385740615784335	0.927690834025172	0.1330585619038667	0.22962482020453576	0.9746114878315957	0.10785806881354335	-0.22268822681257738	1.0175113384621788	0.12938602496653026	-0.2409687698726144	0.8534121033560981	0.06977334557514697	-0.22793049652527125	0.8854573302783102	0.10978139020422206	-0.25629149538011536	1.0349196283184317	0.34994924344677114	1.2266125164195034	0.9320642702311293	0.38658785826353304	1.4860881906877195	0.8826621289010128	0.3587188679625093	1.3459369162122576	0.7985457644741736	0.48874726939080426	1.1313628490148484	0.8911329711840845	0.5226826395446867	0.8716554081423756	0.8018736936460515	0.34951998399831496	0.7482979816730552	0.7075339098783976	0.26265462654906424	0.6766768239255886	0.7135256771334607	0.25796001884474	0.6737310729933231	0.7232638965804311	0.26902684865855453	0.6533134466606916	0.7584895685495922	0.18564617271635317	1.1728533265071635	0.8956167136569615	0.13302617555581306	0.9364771274397028	0.8459802783758552	0.2124415613497042	0.757717319316294	0.731344212732691	0.28572446764771714	0.682749477924042	0.7154295664219168	0.2877310543148623	0.6616989187378355	0.7286551880705476	0.2703742320206156	0.6637518066509878	0.7381574082311808	
48	1.0212765957446808	0.3952670166642651	0.6404531127690306	0.8757515882935653	0.3761015338037939	0.2036619161066136	0.9795987282863949	0.3136198552534399	-0.22411953451661426	0.9939548247474791	0.2925035264202702	-0.27145023096208215	0.8599283869389613	0.3583304630304431	-0.2680212613844759	0.8687020197531716	0.2814700287547577	-0.29916806823831776	1.0680780130419196	0.17063189408104215	0.6389137757324778	0.9267822949598346	0.1331476447267898	0.2297144894770037	0.9748325796546914	0.10785554122913943	-0.22268758618797835	1.0175268458022662	0.12913625420022704	-0.2407006544121131	0.8524685129788705	0.06967698496005778	-0.22775049305130154	0.8860801763899299	0.10988192292210122	-0.2564195725799215	1.0350457661611916	0.3500292468109285	1.2273524565855707	0.9323983941784757	0.3872514704126157	1.4853525921781807	0.8851765975361832	0.3593965767997328	1.346420197196679	0.798948961387144	0.4893503146171968	1.131767482965111	0.8887521419354742	0.522690318717235	0.8715246938762871	0.8018849079436696	0.3500738248806394	0.7490539159455751	0.7068124846929682	0.26274925300168844	0.677927383505196	0.7112437670773826	0.2579660656617087	0.6737573798276416	0.7232226268709913	0.2689912931173684	0.653289421168771	0.7584812478458726	0.1856610789750948	1.1728473967138244	0.895615125407935	0.13302567967375994	0.9363036700837748	0.8462585269276992	0.2124308318806246	0.7577016909230401	0.7313689533040671	0.2863920641836016	0.6819801583273347	0.7177728008364289	0.288748566335142	0.6627017261677965	0.7253388850464181	0.2703821358307612	0.6637594334755048	0.7381229938949316	
49	1.0425531914893618	0.3956512060865092	0.6403091210639458	0.8758825861482515	0.3760144319444986	0.20325056362956848	0.9796582798664834	0.3134366114006487	-0.2237265322459682	0.9933105176422692	0.29210191141597064	-0.2700926433061478	0.8578822665486866	0.35783195099594467	-0.2699555437787428	0.8717742545815569	0.28135332746922637	-0.2987931688330951	1.0674954078093992	0.1704600797989207	0.6391089870732006	0.926059411749317	0.13323443435605103	0.22959863428131885	0.9751883060009258	0.10785413397466082	-0.22267206835337727	1.0175419480271886	0.1290746231510746	-0.24069703139728815	0.8524895763975096	0.06964080301657861	-0.22760467026124975	0.8865167324653436	0.10991573681795444	-0.25649464690834295	1.035090025618799	0.3499533897913779	1.2281354095093422	0.9321559730954319	0.3878707651851399	1.484505596672739	0.8875848637768051	0.35982342194910616	1.3471264200007471	0.7992825054712429	0.48982162328902606	1.1323727223576192	0.8867932325966861	0.5226818862586547	0.8714453188367206	0.8019139593827981	0.3505408313438515	0.7499651204419866	0.7060748195147606	0.2628351640848736	0.6791208317317118	0.7100219459083931	0.2579725389919997	0.6737719727648313	0.7232152795780175	0.2689625580101751	0.653276830908287	0.7584769458344292	0.18568167362119942	1.1728438765372344	0.8956120320463825	0.1330264508888651	0.936159426718431	0.8465044006000726	0.2124170898467525	0.7576891196382879	0.7314088897306408	0.2869302426459226	0.6814804545708624	0.719509429778637	0.2895141823723056	0.6634642311909814	0.7228321776873038	0.27039111999100873	0.6637637606388496	0.7381211377904163	
50	1.0638297872340423	0.3959317420295662	0.6400625563026838	0.8760153808688431	0.37591400534284886	0.20281884174894105	0.9797213108290884	0.3131909109979879	-0.22316986253666954	0.9924327382822496	0.2919775189228776	-0.2696688675850239	0.8572105544922042	0.3580391593667822	-0.27244917372942407	0.8763398214982303	0.28122442704648615	-0.2983662098761521	1.0668994153372822	0.17037903563258266	0.639078967844804	0.9257677872548294	0.13331639459802466	0.229368427840719	0.9757061899485966	0.10785436936919986	-0.22267894102342917	1.0175592316328	0.1291461421671431	-0.24100131048110568	0.8530725409848818	0.06969994500825474	-0.2277870831230343	0.8867323747037786	0.10993142680770239	-0.2565279013955724	1.0351223467885022	0.34989904771083546	1.2287728870023584	0.9319446932332953	0.3883739617810077	1.4838057383961378	0.889563207719545	0.35997731892120066	1.3480957628359171	0.799523989376163	0.4900632697114663	1.1331689145250112	0.8855134475459305	0.5226594183947895	0.8715770497486434	0.8019278368439889	0.35097440398670476	0.7506987063762125	0.706158952371355	0.2628935621106401	0.6800019985220631	0.7098247864135458	0.2579774394596678	0.6737689016123685	0.7232550265885161	0.26894664706137683	0.6532746949566797	0.7584846351075986	0.18565976892439962	1.1728488631243275	0.8955961968651689	0.13303049281701396	0.9360878882751602	0.8466560375341925	0.21240225284882577	0.7576783214346208	0.7314570519751844	0.2872393219978372	0.6814021343026246	0.7199733758643408	0.2897818714706062	0.6637473464257314	0.7219037437233815	0.27039963542550377	0.6637645680858255	0.7381591264168601	
51	1.0851063829787233	0.39615850787592105	0.6397509733256281	0.8761480009189782	0.37580338742855907	0.20237510899265806	0.9797885487699043	0.3128959108349522	-0.22248726495969837	0.9913718697917636	0.2921615255746045	-0.2702828829910912	0.8580711567124626	0.35855264785693164	-0.2759311900362115	0.8820143434022832	0.28109488474529126	-0.2979810546154866	1.0662922577063472	0.1703975945778507	0.6388593112212981	0.9259329650629343	0.1333924863365868	0.22909876372213417	0.9763228609313666	0.10785938955990117	-0.22277560355637144	1.0175969531291444	0.12921816139552159	-0.24130310682044273	0.8535634162093364	0.06982082471449258	-0.22849965786401777	0.8868890232340902	0.10994954167678449	-0.2565432238410462	1.0351810214111792	0.34992049767266786	1.2291216960976397	0.9319579582883425	0.38867085942080637	1.4833863073076676	0.8907621973307267	0.3599806183847395	1.3491871080804716	0.7996878946434576	0.4900610281306689	1.1337136366142637	0.8852709866351751	0.5226294330355005	0.8719974107922133	0.8018802138425609	0.3511975282228852	0.751190937259425	0.7070151432632515	0.2628906602320307	0.6805442241554096	0.7103168042556629	0.2579790547822588	0.6737496580178782	0.7233234476078277	0.26892937989114435	0.6532810242548206	0.7584996978939406	0.18554107587712365	1.1728663074606311	0.895547946987118	0.13303770564170017	0.9360995596038868	0.8466662166001127	0.21238965733829993	0.7576665361336741	0.7314971993560639	0.28728330002801555	0.6816670725305243	0.7192580154935235	0.28948497045806293	0.6634893853153632	0.7227491158065552	0.27040595460970823	0.6637642716603089	0.738216017282574	
52	1.1063829787234043	0.3963595977139556	0.6393852169096957	0.8762814750672936	0.37568737009537756	0.20193028562690846	0.9798575968929861	0.3125425788250506	-0.22165714740204345	0.9900909562538874	0.29260081619404066	-0.27177113641202444	0.8602069004217524	0.35895243405110633	-0.2800010809250757	0.8877616962243715	0.28100224807698543	-0.2977638767847887	1.0658160019930325	0.17047614826901172	0.6384938890288683	0.9263858552300114	0.13346315347611026	0.22882499296922856	0.9768465619184658	0.10787035468299859	-0.22296437576982073	1.01766399315615	0.12922668565087053	-0.24136951914077964	0.8536936355942047	0.06995591849343664	-0.22968354439555297	0.887002696989855	0.1099606988775135	-0.25654547547497847	1.0352302773066362	0.3499232707975348	1.2291693107899502	0.9320086918675343	0.38872502435325007	1.4832136975617916	0.8910417667289557	0.3599705778640551	1.350182511657392	0.7997906421549015	0.48993046187372324	1.133521235163677	0.8861635331603436	0.5225954729732705	0.872772189184672	0.80179514106765	0.3509892753155193	0.7515317537296454	0.7078184411342843	0.26279637749166757	0.6808884248858652	0.7109035970952825	0.25797574324642436	0.67372040580866	0.7233940023601252	0.26889832811874337	0.6532922431078642	0.7585261964851922	0.18540305741564056	1.1728831436892044	0.8954984813563103	0.133046092991712	0.9361935698908067	0.8465098206627109	0.2123813167425198	0.7576559823198828	0.7315204800616835	0.28717225192968193	0.6819950920148548	0.7182042552145138	0.2887087281513368	0.6627660584083266	0.7251196050101901	0.2704091190319758	0.6637654366788064	0.7382769647498724	
